<?xml version="1.0" encoding="utf-8"?>
<!-- Generator: Adobe Illustrator 16.0.0, SVG Export Plug-In . SVG Version: 6.00 Build 0)  -->
<!DOCTYPE svg PUBLIC "-//W3C//DTD SVG 1.1//EN" "http://www.w3.org/Graphics/SVG/1.1/DTD/svg11.dtd">
<svg version="1.1" id="Capa_1" xmlns="http://www.w3.org/2000/svg" xmlns:xlink="http://www.w3.org/1999/xlink" x="0px" y="0px"
	 width="1080px" height="1080px" viewBox="420 0 1080 1080" enable-background="new 420 0 1080 1080" xml:space="preserve">
<g>
	<path fill="#FFFFFF" d="M1424.933,2.24H681.425c-41.401,0-75.07,33.668-75.07,75.07v81.389h36.847h307.482h475.693v662.119
		c0,0.777-0.634,1.408-1.444,1.408h-126.146v73.662h126.146c41.362,0,75.067-33.669,75.067-75.07V77.31
		C1500,35.908,1466.295,2.24,1424.933,2.24z M1145.509,121.18c-22.693,0-41.119-18.352-41.119-41.081
		c0-9.884,3.952-18.638,9.811-25.698c7.519-9.177,18.494-15.353,31.307-15.353c12.74,0,23.717,6.176,31.271,15.353
		c5.824,7.06,9.777,15.813,9.777,25.698C1186.556,102.828,1168.167,121.18,1145.509,121.18z M1255.944,121.18
		c-22.693,0-41.12-18.352-41.12-41.081c0-9.884,3.991-18.638,9.85-25.698c7.519-9.177,18.456-15.353,31.271-15.353
		c12.774,0,23.683,6.176,31.27,15.353c5.824,7.06,9.776,15.813,9.776,25.698C1296.988,102.828,1278.568,121.18,1255.944,121.18z
		 M1366.343,121.18c-22.661,0-41.049-18.352-41.049-41.081c0-9.884,3.921-18.638,9.776-25.698
		c7.556-9.177,18.497-15.353,31.274-15.353s23.754,6.176,31.305,15.353c5.824,7.06,9.778,15.813,9.778,25.698
		C1407.426,102.828,1389.001,121.18,1366.343,121.18z"/>
	<path fill="#FFFFFF" d="M860.189,1025.208V937.68H493.623V334.92c0-15.951,13.024-28.974,28.978-28.974h428.083
		c15.952,0,29.01,13.021,29.01,28.974v134.507h73.589V334.92c0-56.611-46.026-102.599-102.602-102.599h-428.08
		C465.989,232.321,420,278.309,420,334.92v639.744c0,56.614,45.989,102.604,102.601,102.604h352.8
		C867.67,1064.876,860.189,1048.441,860.189,1025.208z M736.695,1050.088c-12.563,0-23.365-5.962-30.92-14.821
		c-6.067-7.13-10.197-16.094-10.197-26.295c0-22.659,18.425-41.083,41.12-41.083c22.624,0,41.049,18.424,41.049,41.083
		c0,10.201-4.096,19.167-10.168,26.295C759.99,1044.126,749.188,1050.088,736.695,1050.088z"/>
	<path fill="#FFFFFF" d="M1200.178,515.416H958.802c-28.976,0-52.591,23.576-52.591,52.589v457.201
		c0,28.976,23.615,52.554,52.591,52.554h241.376c28.978,0,52.588-23.578,52.588-52.554V568.005
		C1252.766,538.992,1229.155,515.416,1200.178,515.416z M961.45,570.651h236.081v404.892H961.45V570.651z M1053.177,1023.829
		c0-14.506,11.754-26.261,26.26-26.261c14.576,0,26.365,11.755,26.365,26.261c0,14.54-11.789,26.33-26.365,26.33
		C1064.931,1050.159,1053.177,1038.372,1053.177,1023.829z"/>
</g>
</svg>
