<?xml version="1.0" encoding="utf-8"?>
<!-- Generator: Adobe Illustrator 16.0.0, SVG Export Plug-In . SVG Version: 6.00 Build 0)  -->
<!DOCTYPE svg PUBLIC "-//W3C//DTD SVG 1.1//EN" "http://www.w3.org/Graphics/SVG/1.1/DTD/svg11.dtd">
<svg version="1.1" id="Capa_1" xmlns="http://www.w3.org/2000/svg" xmlns:xlink="http://www.w3.org/1999/xlink" x="0px" y="0px"
	 width="1080px" height="1080px" viewBox="420 0 1080 1080" enable-background="new 420 0 1080 1080" xml:space="preserve">
<g>
	<g>
		<path fill="#FFFFFF" d="M1405.078,0H514.922C462.582,0,420,42.582,420,94.922v890.156c0,52.34,42.582,94.922,94.922,94.922
			h890.156c52.34,0,94.922-42.582,94.922-94.922V94.922C1500,42.582,1457.418,0,1405.078,0z M483.281,94.922
			c0-17.447,14.194-31.641,31.641-31.641h160.313v189.844H483.281V94.922z M1436.719,985.078c0,17.446-14.194,31.641-31.641,31.641
			H514.922c-17.446,0-31.641-14.194-31.641-31.641V316.406h953.438V985.078z M1436.719,253.125H738.516V63.281h666.563
			c17.446,0,31.641,14.194,31.641,31.641V253.125z"/>
	</g>
</g>
<g>
	<g>
		<path fill="#FFFFFF" d="M1341.797,126.563h-65.391c-17.474,0-31.641,14.167-31.641,31.641s14.167,31.641,31.641,31.641h65.391
			c17.474,0,31.641-14.167,31.641-31.641S1359.271,126.563,1341.797,126.563z"/>
	</g>
</g>
<g>
	<g>
		<path fill="#FFFFFF" d="M1149.844,126.563h-63.281c-17.474,0-31.641,14.167-31.641,31.641s14.167,31.641,31.641,31.641h63.281
			c17.474,0,31.641-14.167,31.641-31.641S1167.317,126.563,1149.844,126.563z"/>
	</g>
</g>
<g>
	<g>
		<path fill="#FFFFFF" d="M960,126.563h-63.281c-17.474,0-31.641,14.167-31.641,31.641s14.167,31.641,31.641,31.641H960
			c17.474,0,31.641-14.167,31.641-31.641S977.474,126.563,960,126.563z"/>
	</g>
</g>
<g>
	<g>
		<path fill="#FFFFFF" d="M1244.766,769.036v-39.192c0-52.34-42.582-94.922-94.922-94.922H991.641v-68.724
			c36.827-13.062,63.281-48.23,63.281-89.479c0-52.34-42.582-94.922-94.922-94.922s-94.922,42.582-94.922,94.922
			c0,41.249,26.454,76.418,63.281,89.479v68.724H770.156c-52.34,0-94.922,42.582-94.922,94.922v39.192
			c-36.827,13.061-63.281,48.23-63.281,89.479c0,52.34,42.582,94.922,94.922,94.922s94.922-42.582,94.922-94.922
			c0-41.249-26.454-76.418-63.281-89.479v-39.192c0-17.446,14.194-31.641,31.641-31.641h158.203v70.833
			c-36.827,13.062-63.281,48.23-63.281,89.479c0,52.34,42.582,94.922,94.922,94.922s94.922-42.582,94.922-94.922
			c0-41.249-26.454-76.418-63.281-89.479v-70.833h158.203c17.446,0,31.641,14.194,31.641,31.641v39.192
			c-36.827,13.061-63.281,48.23-63.281,89.479c0,52.34,42.582,94.922,94.922,94.922s94.922-42.582,94.922-94.922
			C1308.047,817.267,1281.593,782.098,1244.766,769.036z M706.875,890.156c-17.446,0-31.641-14.194-31.641-31.641
			s14.194-31.641,31.641-31.641s31.641,14.194,31.641,31.641S724.321,890.156,706.875,890.156z M960,890.156
			c-17.446,0-31.641-14.194-31.641-31.641s14.194-31.641,31.641-31.641s31.641,14.194,31.641,31.641S977.446,890.156,960,890.156z
			 M960,508.359c-17.446,0-31.641-14.194-31.641-31.641s14.194-31.641,31.641-31.641s31.641,14.194,31.641,31.641
			S977.446,508.359,960,508.359z M1213.125,890.156c-17.446,0-31.641-14.194-31.641-31.641s14.194-31.641,31.641-31.641
			s31.641,14.194,31.641,31.641S1230.571,890.156,1213.125,890.156z"/>
	</g>
</g>
</svg>
